<?xml version="1.0" encoding="UTF-8"?>
<svg width="892.22mm" height="342.19mm" version="1.1" viewBox="0 0 892.22 342.19" xmlns="http://www.w3.org/2000/svg" xmlns:xlink="http://www.w3.org/1999/xlink">
 <defs>
  <radialGradient id="radialGradient1570" cx="86.595" cy="-200.27" r="124.81" gradientTransform="matrix(2.696 0 0 .95164 56.885 -79.141)" gradientUnits="userSpaceOnUse">
   <stop stop-color="#ce0063" offset="0"/>
   <stop stop-color="#ce0063" stop-opacity="0" offset="1"/>
  </radialGradient>
  <filter id="filter11396" x="-.14094" y="-.14094" width="1.2819" height="1.2819" color-interpolation-filters="sRGB">
   <feGaussianBlur stdDeviation="0.04439261"/>
  </filter>
  <filter id="filter11400" x="-.14094" y="-.14094" width="1.2819" height="1.2819" color-interpolation-filters="sRGB">
   <feGaussianBlur stdDeviation="0.04439261"/>
  </filter>
  <filter id="filter11404" x="-.14094" y="-.14094" width="1.2819" height="1.2819" color-interpolation-filters="sRGB">
   <feGaussianBlur stdDeviation="0.04439261"/>
  </filter>
  <filter id="filter11408" x="-.14094" y="-.14094" width="1.2819" height="1.2819" color-interpolation-filters="sRGB">
   <feGaussianBlur stdDeviation="0.04439261"/>
  </filter>
  <filter id="filter11412" x="-.14094" y="-.14094" width="1.2819" height="1.2819" color-interpolation-filters="sRGB">
   <feGaussianBlur stdDeviation="0.04439261"/>
  </filter>
  <filter id="filter11416" x="-.14094" y="-.14094" width="1.2819" height="1.2819" color-interpolation-filters="sRGB">
   <feGaussianBlur stdDeviation="0.04439261"/>
  </filter>
  <filter id="filter11420" x="-.14094" y="-.14094" width="1.2819" height="1.2819" color-interpolation-filters="sRGB">
   <feGaussianBlur stdDeviation="0.04439261"/>
  </filter>
  <filter id="filter11424" x="-.14094" y="-.14094" width="1.2819" height="1.2819" color-interpolation-filters="sRGB">
   <feGaussianBlur stdDeviation="0.04439261"/>
  </filter>
  <filter id="filter11428" x="-.14094" y="-.14094" width="1.2819" height="1.2819" color-interpolation-filters="sRGB">
   <feGaussianBlur stdDeviation="0.04439261"/>
  </filter>
  <filter id="filter11432" x="-.14094" y="-.14094" width="1.2819" height="1.2819" color-interpolation-filters="sRGB">
   <feGaussianBlur stdDeviation="0.04439261"/>
  </filter>
  <filter id="filter11436" x="-.14094" y="-.14094" width="1.2819" height="1.2819" color-interpolation-filters="sRGB">
   <feGaussianBlur stdDeviation="0.04439261"/>
  </filter>
  <filter id="filter11440" x="-.14094" y="-.14094" width="1.2819" height="1.2819" color-interpolation-filters="sRGB">
   <feGaussianBlur stdDeviation="0.04439261"/>
  </filter>
  <filter id="filter11444" x="-.14094" y="-.14094" width="1.2819" height="1.2819" color-interpolation-filters="sRGB">
   <feGaussianBlur stdDeviation="0.04439261"/>
  </filter>
 </defs>
 <g transform="translate(167.21 519.93)">
  <circle cx="259.21" cy="-914.1" r="80.453" fill="#800080"/>
  <rect x="-137.48" y="-1038.3" width="127.6" height="35.653" opacity="0" stroke-width=".4644"/>
  <path d="m100.23-836.62a94.207 70.987 0 0 1-60.927 67.588 94.207 70.987 0 0 1-105-20.397 94.207 70.987 0 0 1-9.9686-81.36 94.207 70.987 0 0 1 98.268-34.538l-16.568 69.88z" opacity="0" stroke-width=".4644"/>
  <g transform="translate(-2.1382 -27.796)">
   <path transform="translate(-1.1917e-6 -4.5e-6)" d="m124.81-451.79 30.962-12.197 47.85 15.95 167 0.93823 51.603-0.93823 42.22 30.023 20.641-12.197 14.073 19.703 0.93823 25.332-366.85-4.6912z" fill="#ecb9d5"/>
   <g>
    <path d="m-164.16-428.33 47.85 21.579 94.761-24.394 62.861 13.135 29.085-43.159 54.417 9.3823 55.355 25.332 24.394-23.456 30.023-30.023 19.703-12.197 31.9 18.765 40.344 5.6294 44.097 20.641 40.344 33.776 53.479-4.6911 34.714 7.5058 34.714-16.888 72.244 38.467 48.788-50.664 38.467-27.209 33.776 11.259-0.93823 83.502-891.28 5.596z" fill="#3f0f53"/>
    <path d="m160.64-371.57 25.492-24.511 10.386-36.122 50.041-16.771 47.208 27.091 40.599 37.412 18.883 6.4503 82.142-7.7404s34.934 2.5801 40.599 6.4503c5.665 3.8702 79.31 0 79.31 0h15.107l22.66-2.5801 24.548 6.4503 31.157-9.0304 23.604 1.2901 48.152 5.1602 5.5662 1.9119-891.11 9.6318 1.8048-19.284 20.772 3.8702 19.827 6.4503 49.097-18.061 67.98 12.901h50.985l35.878 2.5801 36.822-3.8702z" fill="#340f53"/>
   </g>
   <g transform="rotate(.16916 280.28 -272.4)">
    <g>
     <path d="m726.13-311.99-49.173-21.579-94.761 24.394-62.861-13.135-29.085 43.159-54.417-9.3823-55.355-25.332-24.394 23.456-30.023 30.023-19.703 12.197-31.9-18.765-40.344-5.6293-44.097-20.641-40.344-33.776-53.479 4.6911-34.714-7.5058-34.714 16.888-72.244-38.467-48.788 50.664-38.467 27.209-32.004-10.774 0.10191-81.982 890.78-7.5003z" fill="#303030"/>
     <path d="m159.85-364.21 25.439 24.233 10.364 35.711 49.936 16.58 47.109-26.783 40.514-36.987 18.844-6.377 81.97 7.6524s34.861-2.5508 40.514-6.377c5.6531-3.8262 79.144 0 79.144 0h15.075l22.613 2.5508 24.497-6.377 31.092 8.9278 23.555-1.2754 48.052-5.1016 6.965-2.5508-890.57-8.9278 1.7173 19.131 20.728-3.8262 19.786-6.377 48.994 17.856 67.837-12.754h50.878l35.803-2.5508 36.745 3.8262z" fill="#131313"/>
     <path d="m-46.156-380.71 0.70769 229.77 671.59-2.9208 0.70763-234.64" fill="url(#radialGradient1570)" opacity=".666"/>
    </g>
    <path d="m-165.1-370.05 0.93823 221.42 890.38-2.9149-0.13092-225.98" fill="#360063" fill-opacity=".69347"/>
   </g>
  </g>
  <g transform="matrix(1.7552 0 0 1.7552 107.54 -279.73)">
   <path d="m118.39-383.4 1.1457 5.1761c13.059-0.91753 23.192-0.22733 28.831 1.4261 2.8198 0.82672 4.3116 1.892 4.7253 2.4686 0.4137 0.57658 0.57942 1.0698-0.37351 2.6441-1.9059 3.1486-8.7258 7.8659-18.695 12.186-9.9688 4.3201-23.062 8.5066-37.649 11.839-14.587 3.3321-28.974 5.425-41.187 6.1652-12.213 0.74026-22.371 0.0194-27.814-1.7924-2.6882-0.89483-3.7655-1.8903-4.0373-2.3968-0.27179-0.50645-0.35303-1.2555 0.70161-2.8079 2.1093-3.1048 8.7078-7.683 19.184-12.15 0.12486-0.0532 0.2494-0.10718 0.37427-0.15992l0.0019-4.1e-4c0.1354-0.0573 0.271-0.11406 0.40669-0.17088l-3.3764-4.9751c-0.14186 0.0594 0.2742 0.30631 0.13457 0.36536-0.13126 0.0554-0.26138 0.11035-0.39048 0.1654-10.855 4.6285-17.975 9.0725-21.152 13.749-1.5886 2.3384-2.2058 5.171-0.80124 7.7883 1.4046 2.6173 4.2142 4.2887 7.7276 5.4582 7.1135 2.3679 17.54 2.87 30.131 2.1069 12.591-0.76312 27.228-2.899 42.082-6.292 14.854-3.3931 28.195-7.6475 38.538-12.13 10.343-4.4824 17.714-8.9297 20.759-13.96 1.5224-2.5151 1.7082-5.629-0.0658-8.1014-1.774-2.4724-4.6797-3.8982-8.2227-4.9369-7.086-2.0775-17.541-2.609-30.979-1.6648z" color="#000000" color-rendering="auto" dominant-baseline="auto" fill="#f8009c" image-rendering="auto" opacity=".666" shape-rendering="auto" solid-color="#000000" style="font-feature-settings:normal;font-variant-alternates:normal;font-variant-caps:normal;font-variant-ligatures:normal;font-variant-numeric:normal;font-variant-position:normal;isolation:auto;mix-blend-mode:normal;shape-padding:0;text-decoration-color:#000000;text-decoration-line:none;text-decoration-style:solid;text-indent:0;text-orientation:mixed;text-transform:none;white-space:normal"/>
   <ellipse transform="matrix(.9822 -.18786 .12695 .99191 0 0)" cx="133.1" cy="-338.11" rx="68.707" ry="17.249" fill="none" stroke="#fff" stroke-width=".60545"/>
  </g>
  <path d="m258.3-998.3a80.453 80.453 0 0 0-80.454 80.452 80.453 80.453 0 0 0 1.4993 15.137h84.618v-32.268h72.892a80.453 80.453 0 0 0-78.555-63.322z" fill="#800080"/>
  <g fill="#720080">
   <ellipse cx="-89.017" cy="-918.19" rx="3.5394" ry="3.3451"/>
   <g stroke="#940080" stroke-width="1.0531">
    <circle cx="-53.34" cy="-875.25" r=".66343"/>
    <circle cx="-49.2" cy="-849.73" r=".66343"/>
    <circle cx="-63.685" cy="-871.93" r=".66343"/>
    <circle cx="-33.008" cy="-871.62" r=".66343"/>
    <circle cx="-13.947" cy="-940.2" r=".66343"/>
    <circle cx="57.075" cy="-933.33" r=".66343"/>
    <circle cx="-16.317" cy="-909.68" r=".66343"/>
    <circle cx="22.336" cy="-947.84" r=".66343"/>
    <circle cx="15.144" cy="-900.93" r=".66343"/>
    <circle cx="62.71" cy="-905.31" r=".66343"/>
    <circle cx="8.1172" cy="-893.23" r=".66343"/>
    <circle cx="8.7374" cy="-841.47" r=".66343"/>
    <circle cx="9.0334" cy="-827.02" r=".66343"/>
    <circle cx="39.711" cy="-826.71" r=".66343"/>
    <circle cx="-1.3117" cy="-823.7" r=".66343"/>
    <circle cx="29.366" cy="-823.39" r=".66343"/>
    <circle cx="23.221" cy="-917.6" r=".66343"/>
    <circle cx="44.047" cy="-928.55" r=".66343"/>
    <circle cx="75.737" cy="-943.36" r=".66343"/>
    <circle cx="48.245" cy="-901.77" r=".66343"/>
    <circle cx="-2.5925" cy="-831.5" r=".66343"/>
    <circle cx="-12.938" cy="-828.18" r=".66343"/>
    <circle cx="8.1787" cy="-816.11" r=".66343"/>
   </g>
   <ellipse cx="-68.73" cy="-930.33" rx="3.5394" ry="3.3451"/>
   <g stroke="#940080" stroke-width="1.0531">
    <circle cx="-33.053" cy="-887.38" r=".66343"/>
    <circle cx=".27815" cy="-853.9" r=".66343"/>
    <circle cx="-59.321" cy="-864.16" r=".66343"/>
    <circle cx="-12.721" cy="-883.76" r=".66343"/>
    <circle cx="3.9697" cy="-921.81" r=".66343"/>
    <circle cx="-21.723" cy="-922.19" r=".66343"/>
    <circle cx="-111.82" cy="-993.76" r=".66343"/>
    <circle cx="-40.802" cy="-986.89" r=".66343"/>
    <circle cx="-114.19" cy="-963.23" r=".66343"/>
    <circle cx="-75.541" cy="-1001.4" r=".66343"/>
    <circle cx="-82.733" cy="-954.48" r=".66343"/>
    <circle cx="-35.167" cy="-958.87" r=".66343"/>
    <circle cx="-74.656" cy="-971.15" r=".66343"/>
    <circle cx="-53.83" cy="-982.1" r=".66343"/>
    <circle cx="-49.632" cy="-955.33" r=".66343"/>
    <circle cx="-130.93" cy="-940.94" r=".66343"/>
    <circle cx="-100.25" cy="-940.63" r=".66343"/>
    <circle cx="-141.28" cy="-937.62" r=".66343"/>
    <circle cx="-110.6" cy="-937.31" r=".66343"/>
    <circle cx="-93.907" cy="-975.37" r=".66343"/>
    <circle cx="-119.6" cy="-975.74" r=".66343"/>
    <circle cx="100.43" cy="-976.76" r=".66343"/>
    <circle cx="171.45" cy="-969.88" r=".66343"/>
    <circle cx="136.72" cy="-984.39" r=".66343"/>
    <circle cx=".18572" cy="-999.78" r=".66343"/>
    <circle cx="31.647" cy="-991.03" r=".66343"/>
    <circle cx="79.213" cy="-995.42" r=".66343"/>
    <circle cx="64.748" cy="-991.88" r=".66343"/>
    <circle cx="14.127" cy="-977.18" r=".66343"/>
    <circle cx="3.7822" cy="-973.86" r=".66343"/>
   </g>
   <ellipse cx="600.59" cy="-973.04" rx="3.5394" ry="3.3451"/>
   <g stroke="#940080">
    <circle transform="matrix(1.7552 0 0 1.7552 121.47 -266.73)" cx="191.24" cy="-371.89" r=".37798" filter="url(#filter11444)" stroke-width=".6"/>
    <circle cx="507.72" cy="-887.33" r=".66343" stroke-width="1.0531"/>
    <circle cx="466.7" cy="-884.31" r=".66343" stroke-width="1.0531"/>
    <circle transform="matrix(1.7552 0 0 1.7552 121.47 -266.73)" cx="205.85" cy="-376.63" r=".37798" filter="url(#filter11440)" stroke-width=".6"/>
    <g stroke-width="1.0531">
     <circle cx="516.44" cy="-952.59" r=".66343"/>
     <circle cx="587.46" cy="-945.71" r=".66343"/>
     <circle cx="514.07" cy="-922.06" r=".66343"/>
     <circle cx="552.72" cy="-960.22" r=".66343"/>
     <circle cx="545.53" cy="-913.31" r=".66343"/>
     <circle cx="593.1" cy="-917.69" r=".66343"/>
     <circle cx="553.61" cy="-929.98" r=".66343"/>
     <circle cx="591.68" cy="-939.6" r=".66343"/>
     <circle cx="606.12" cy="-955.75" r=".66343"/>
     <circle cx="578.63" cy="-914.16" r=".66343"/>
    </g>
   </g>
   <ellipse cx="497.48" cy="-995.78" rx="3.5394" ry="3.3451"/>
   <g stroke="#940080">
    <circle cx="494.68" cy="-962.13" r=".66343" stroke-width="1.0531"/>
    <circle cx="644.77" cy="-842.4" r=".66343" stroke-width="1.0531"/>
    <circle transform="matrix(1.7552 0 0 1.7552 121.47 -266.73)" cx="196.91" cy="-388.25" r=".37798" filter="url(#filter11436)" stroke-width=".6"/>
    <circle cx="533.59" cy="-973.1" r=".66343" stroke-width="1.0531"/>
    <circle cx="534.36" cy="-934.19" r=".66343" stroke-width="1.0531"/>
    <circle transform="matrix(1.7552 0 0 1.7552 121.47 -266.73)" cx="200.94" cy="-394.85" r=".37798" filter="url(#filter11432)" stroke-width=".6"/>
    <circle cx="418.56" cy="-1006.1" r=".66343" stroke-width="1.0531"/>
    <circle transform="matrix(1.7552 0 0 1.7552 121.47 -266.73)" cx="209.72" cy="-417.35" r=".37798" filter="url(#filter11428)" stroke-width=".6"/>
    <circle transform="matrix(1.7552 0 0 1.7552 121.47 -266.73)" cx="167.91" cy="-403.87" r=".37798" filter="url(#filter11424)" stroke-width=".6"/>
    <circle cx="454.84" cy="-1013.8" r=".66343" stroke-width="1.0531"/>
    <circle transform="matrix(1.7552 0 0 1.7552 121.47 -266.73)" cx="185.84" cy="-398.89" r=".37798" filter="url(#filter11420)" stroke-width=".6"/>
    <circle cx="495.22" cy="-971.25" r=".66343" stroke-width="1.0531"/>
    <g stroke-width=".6">
     <circle transform="matrix(1.7552 0 0 1.7552 121.47 -266.73)" cx="190.44" cy="-408.39" r=".37798" filter="url(#filter11416)"/>
     <circle transform="matrix(1.7552 0 0 1.7552 121.47 -266.73)" cx="202.3" cy="-414.63" r=".37798" filter="url(#filter11412)"/>
     <circle transform="matrix(1.7552 0 0 1.7552 121.47 -266.73)" cx="204.69" cy="-399.37" r=".37798" filter="url(#filter11408)"/>
     <circle transform="matrix(1.7552 0 0 1.7552 121.47 -266.73)" cx="175.85" cy="-391" r=".37798" filter="url(#filter11404)"/>
     <circle transform="matrix(1.7552 0 0 1.7552 121.47 -266.73)" cx="169.96" cy="-389.11" r=".37798" filter="url(#filter11400)"/>
     <circle transform="matrix(1.7552 0 0 1.7552 121.47 -266.73)" cx="179.47" cy="-410.79" r=".37798" filter="url(#filter11396)"/>
    </g>
    <g stroke-width="1.0531">
     <circle cx="530.57" cy="-1012.2" r=".66343"/>
     <circle cx="562.03" cy="-1003.4" r=".66343"/>
     <circle cx="609.6" cy="-1007.8" r=".66343"/>
     <circle cx="595.13" cy="-1004.3" r=".66343"/>
     <circle cx="544.51" cy="-989.57" r=".66343"/>
     <circle cx="534.17" cy="-986.25" r=".66343"/>
     <circle cx="624.65" cy="-888.31" r=".66343"/>
     <circle cx="599.71" cy="-928.77" r=".66343"/>
     <circle cx="631" cy="-923.04" r=".66343"/>
     <circle cx="662.46" cy="-914.29" r=".66343"/>
     <circle cx="710.02" cy="-918.67" r=".66343"/>
     <circle cx="670.54" cy="-930.96" r=".66343"/>
     <circle cx="695.56" cy="-915.14" r=".66343"/>
     <circle cx="644.94" cy="-900.44" r=".66343"/>
     <circle cx="651.28" cy="-935.17" r=".66343"/>
     <circle cx="602.68" cy="-990.42" r=".66343"/>
     <circle cx="634.15" cy="-981.67" r=".66343"/>
     <circle cx="667.25" cy="-982.51" r=".66343"/>
     <circle cx="507.72" cy="-911.67" r=".66343"/>
     <circle cx="576.33" cy="-879.03" r=".66343"/>
     <circle cx="547.26" cy="-919.59" r=".66343"/>
     <circle cx="521.66" cy="-889.07" r=".66343"/>
     <circle cx="528.01" cy="-923.8" r=".66343"/>
     <circle cx="474.42" cy="-836.63" r=".66343"/>
     <circle cx="433.4" cy="-833.62" r=".66343"/>
     <circle cx="480.77" cy="-871.36" r=".66343"/>
    </g>
    <ellipse transform="matrix(-.83014 .55756 .55756 .83014 0 0)" cx="-913.3" cy="-416.11" rx="3.9037" ry=".31285" stroke-width="1.7543"/>
    <g stroke-width="1.0531">
     <circle cx="559.8" cy="-866.99" r=".66343"/>
     <circle cx="545.33" cy="-863.46" r=".66343"/>
     <circle cx="494.71" cy="-848.76" r=".66343"/>
     <circle cx="591.35" cy="-837.61" r=".66343"/>
     <circle cx="597.7" cy="-872.34" r=".66343"/>
     <circle cx="474.42" cy="-860.97" r=".66343"/>
     <circle cx="505.88" cy="-852.22" r=".66343"/>
     <circle cx="540.5" cy="-859.6" r=".66343"/>
     <circle cx="498.98" cy="-814.48" r=".66343"/>
     <circle cx="501.34" cy="-862.49" r=".66343"/>
     <circle cx="-149.61" cy="-871.66" r=".66343"/>
     <circle cx="-118.93" cy="-871.35" r=".66343"/>
     <circle cx="-159.96" cy="-868.34" r=".66343"/>
     <circle cx="-129.28" cy="-868.03" r=".66343"/>
     <circle cx="-129.33" cy="-883.79" r=".66343"/>
     <circle cx="-98.648" cy="-883.49" r=".66343"/>
     <circle cx="-119.77" cy="-853.94" r=".66343"/>
     <circle cx="-90.417" cy="-864.24" r=".66343"/>
     <circle cx="-123.76" cy="-821" r=".66343"/>
     <circle cx="-130.79" cy="-813.31" r=".66343"/>
     <circle cx="-115.69" cy="-837.68" r=".66343"/>
     <circle cx="-90.663" cy="-821.85" r=".66343"/>
    </g>
   </g>
   <ellipse cx="-1.9247" cy="-971.45" rx="3.5394" ry="3.3451"/>
   <ellipse cx="518.2" cy="-943.58" rx="3.5394" ry="3.3451"/>
   <ellipse cx="7.3633" cy="-909.09" rx="3.5394" ry="3.3451"/>
   <g stroke="#940080" stroke-width="1.7543">
    <ellipse transform="matrix(-.83014 .55756 .55756 .83014 0 0)" cx="-837.25" cy="-433.01" rx="3.9037" ry=".31285"/>
    <ellipse transform="matrix(-.83014 .55756 .55756 .83014 0 0)" cx="-975.62" cy="-444.63" rx="3.9037" ry=".31285"/>
    <ellipse transform="matrix(-.83014 .55756 .55756 .83014 0 0)" cx="-1067.5" cy="-414.87" rx="3.9037" ry=".31285"/>
    <ellipse transform="matrix(-.83014 .55756 .55756 .83014 0 0)" cx="-466.38" cy="-788.26" rx="3.9037" ry=".31285"/>
    <ellipse transform="matrix(-.83014 .55756 .55756 .83014 0 0)" cx="-406.27" cy="-753.5" rx="3.9037" ry=".31285"/>
    <ellipse transform="matrix(-.83014 .55756 .55756 .83014 0 0)" cx="-592.81" cy="-743.29" rx="3.9037" ry=".31285"/>
    <ellipse transform="matrix(-.83014 .55756 .55756 .83014 0 0)" cx="-497.17" cy="-860.28" rx="3.9037" ry=".31285"/>
   </g>
  </g>
 </g>
</svg>
